<svg class="svg-icon" style="width: 1em; height: 1em;vertical-align: middle;overflow: hidden;" viewBox="0 0 1024 1024" version="1.1" xmlns="http://www.w3.org/2000/svg"><path d="M788.96128 729.45664c11.47904 21.77024 3.587413 49.281707-17.824427 61.2352-6.935893 3.59424-13.636267 5.26336-20.814506 5.26336-16.27136 0-31.81568-9.690453-38.877867-24.04352-32.648533-61.952-95.92832-101.669547-165.05856-103.461547h-11.362987c-68.297387 1.911467-131.331413 41.864533-164.82304 104.301227-7.89504 14.353067-22.606507 23.20384-38.396586 23.20384-6.81984 0-14.114133-1.66912-20.21376-4.778667-21.77024-12.199253-30.02368-39.949653-18.42176-61.719893 25.719467-48.56832 66.030933-89.709227 113.152-116.26496-0.238933-0.119467-0.238933-0.354987-0.477867-0.354987-0.3584 0.116053-0.7168 0.23552-1.0752 0.23552-4.42368 0-8.608427-3.82976-12.4416-7.89504-39.714133-41.386667-61.597013-95.6928-61.597013-152.866133 0-57.658027 21.88288-111.957333 61.597013-152.86272 39.348907-40.78592 92.09856-63.27296 148.555093-63.27296 56.572587 0 109.32224 22.606507 148.677974 63.392427 39.714133 41.386667 61.597013 95.689387 61.597013 152.86272 0 57.654613-21.88288 111.957333-61.597013 152.86272a227.771733 227.771733 0 0 1-13.636267 12.8c4.543147 2.63168 8.73472 5.74464 13.03552 8.608426 41.393493 21.777067 76.796587 58.85952 100.00384 102.754987zM541.723307 325.76512c-67.341653 0-122.12224 56.337067-122.12224 125.82912 0 67.938987 51.674453 123.200853 117.456213 125.832533h9.690453c65.54624-2.757973 116.978347-57.893547 116.978347-125.832533 0.12288-69.372587-54.664533-125.82912-122.002773-125.82912z m366.967466 694.82496H159.208107c-50.957653 0-62.081707-45.929813-62.081707-63.638187v-181.326506l85.282133-0.238934 0.119467 141.018454c0 11.482453 9.089707 20.93056 20.333227 20.811093l666.712746-3.587413c11.24352-0.119467 20.21376-9.325227 20.21376-20.814507l-3.467946-805.102933c0-11.47904-9.089707-20.811093-20.333227-20.691627l-667.5456 3.590827c-11.124053 0.119467-20.21376 9.325227-20.21376 20.814506l-0.23552 101.065387-81.216853-0.354987V67.048107C96.774827 14.779733 141.50656 3.40992 158.85312 3.40992h749.960533c17.343147 0 62.078293 11.3664 62.078294 63.638187v889.429333c-0.12288 25.83552-16.626347 64.11264-62.201174 64.11264zM253.822293 295.38304c0 22.96832-18.182827 41.745067-40.669866 41.745067H93.77792c-22.48704 0-40.78592-18.78016-40.66304-41.745067 0-22.964907 18.176-41.741653 40.66304-41.741653h119.25504c22.48704 0 40.789333 18.660693 40.789333 41.741653z m-160.037546 146.766507h119.251626c22.367573 0 40.669867 18.660693 40.669867 41.741653 0 22.96832-18.179413 41.745067-40.669867 41.745067H93.784747c-22.490453 0-40.789333-18.78016-40.666454-41.745067-0.003413-22.961493 18.176-41.741653 40.666454-41.741653z m0 188.627626h119.251626c22.367573 0 40.669867 18.660693 40.669867 41.741654 0 23.094613-18.179413 41.745067-40.669867 41.745066H93.784747c-22.370987 0-40.666453-18.776747-40.666454-41.745066-0.003413-23.084373 18.176-41.741653 40.666454-41.741654z"  /></svg>